<?xml version="1.0" encoding="iso-8859-1"?>
<!-- Generator: Adobe Illustrator 19.0.0, SVG Export Plug-In . SVG Version: 6.00 Build 0)  -->
<svg version="1.1" id="Layer_1" xmlns="http://www.w3.org/2000/svg" xmlns:xlink="http://www.w3.org/1999/xlink" x="0px" y="0px"
	 viewBox="0 0 300.303 300.303" style="enable-background:new 0 0 300.303 300.303;" xml:space="preserve">
<g>
	<g>
		<path d="M228.751,200.547l-10.609-53.045c48.717-24.848,82.159-75.516,82.159-133.852c0-7.538-6.112-13.65-13.65-13.65h-273
			C6.113,0,0.001,6.112,0.001,13.65C0.002,71.985,33.443,122.653,82.161,147.5l-12.714,63.567c-0.005,0.024-0.009,0.048-0.014,0.071
			l-14.567,72.835c-1.478,7.392,3.316,14.583,10.709,16.062c0.904,0.18,1.804,0.268,2.691,0.268c6.374,0,12.074-4.487,13.371-10.976
			L94.002,227.5h84.392c-3.503,6.831-5.492,14.56-5.492,22.75c0,27.598,22.452,50.05,50.05,50.05c27.598,0,50.05-22.452,50.05-50.05
			C273.001,224.615,253.625,203.431,228.751,200.547z M99.462,200.2l8.489-42.447c13.394,3.928,27.554,6.047,42.201,6.047
			s28.806-2.118,42.199-6.046l8.489,42.446H99.462z M222.951,273c-12.544,0-22.75-10.206-22.75-22.75
			c0-12.544,10.206-22.75,22.75-22.75c12.544,0,22.75,10.206,22.75,22.75C245.701,262.794,235.496,273,222.951,273z"/>
	</g>
</g>
<g>
</g>
<g>
</g>
<g>
</g>
<g>
</g>
<g>
</g>
<g>
</g>
<g>
</g>
<g>
</g>
<g>
</g>
<g>
</g>
<g>
</g>
<g>
</g>
<g>
</g>
<g>
</g>
<g>
</g>
</svg>
