<?xml version="1.0" encoding="UTF-8" standalone="no"?>
<!-- Generator: Adobe Illustrator 19.0.0, SVG Export Plug-In . SVG Version: 6.00 Build 0)  -->

<svg
   xmlns:dc="http://purl.org/dc/elements/1.1/"
   xmlns:cc="http://creativecommons.org/ns#"
   xmlns:rdf="http://www.w3.org/1999/02/22-rdf-syntax-ns#"
   xmlns:svg="http://www.w3.org/2000/svg"
   xmlns="http://www.w3.org/2000/svg"
   xmlns:sodipodi="http://sodipodi.sourceforge.net/DTD/sodipodi-0.dtd"
   xmlns:inkscape="http://www.inkscape.org/namespaces/inkscape"
   version="1.1"
   id="Layer_1"
   x="0px"
   y="0px"
   viewBox="0 0 1200 629.99998"
   xml:space="preserve"
   sodipodi:docname="grill-og.svg"
   width="1200"
   height="630"
   inkscape:export-filename="/Users/xaralis/Workspace/pardubice.pirati.cz/assets/img/griloviste.png"
   inkscape:export-xdpi="96"
   inkscape:export-ydpi="96"
   inkscape:version="0.92.3 (2405546, 2018-03-11)"><metadata
   id="metadata1098"><rdf:RDF><cc:Work
       rdf:about=""><dc:format>image/svg+xml</dc:format><dc:type
         rdf:resource="http://purl.org/dc/dcmitype/StillImage" /><dc:title></dc:title></cc:Work></rdf:RDF></metadata><defs
   id="defs1096" /><sodipodi:namedview
   pagecolor="#ffffff"
   bordercolor="#666666"
   borderopacity="1"
   objecttolerance="10"
   gridtolerance="10"
   guidetolerance="10"
   inkscape:pageopacity="0"
   inkscape:pageshadow="2"
   inkscape:window-width="1534"
   inkscape:window-height="911"
   id="namedview1094"
   showgrid="false"
   inkscape:zoom="0.34436674"
   inkscape:cx="150.1515"
   inkscape:cy="109.08443"
   inkscape:window-x="0"
   inkscape:window-y="0"
   inkscape:window-maximized="0"
   inkscape:current-layer="Layer_1" />
<rect
   style="opacity:1;fill:#ffffff;fill-opacity:1;stroke:none;stroke-width:2;stroke-linecap:square;stroke-linejoin:miter;stroke-miterlimit:4;stroke-dasharray:none;stroke-opacity:1"
   id="rect1132"
   width="1200"
   height="630"
   x="0"
   y="-0.14216422" /><g
   id="g1061"
   transform="translate(810.18284,164.8485)">
	<g
   id="g1059">
		<path
   d="M 228.751,200.547 218.142,147.502 C 266.859,122.654 300.301,71.986 300.301,13.65 300.301,6.112 294.189,0 286.651,0 h -273 C 6.113,0 0.001,6.112 0.001,13.65 0.002,71.985 33.443,122.653 82.161,147.5 l -12.714,63.567 c -0.005,0.024 -0.009,0.048 -0.014,0.071 l -14.567,72.835 c -1.478,7.392 3.316,14.583 10.709,16.062 0.904,0.18 1.804,0.268 2.691,0.268 6.374,0 12.074,-4.487 13.371,-10.976 L 94.002,227.5 h 84.392 c -3.503,6.831 -5.492,14.56 -5.492,22.75 0,27.598 22.452,50.05 50.05,50.05 27.598,0 50.05,-22.452 50.05,-50.05 -0.001,-25.635 -19.377,-46.819 -44.251,-49.703 z M 99.462,200.2 l 8.489,-42.447 c 13.394,3.928 27.554,6.047 42.201,6.047 14.647,0 28.806,-2.118 42.199,-6.046 L 200.84,200.2 Z M 222.951,273 c -12.544,0 -22.75,-10.206 -22.75,-22.75 0,-12.544 10.206,-22.75 22.75,-22.75 12.544,0 22.75,10.206 22.75,22.75 0,12.544 -10.205,22.75 -22.75,22.75 z"
   id="path1057"
   inkscape:connector-curvature="0" />
	</g>
</g>
<g
   id="g1063"
   transform="translate(0,329.69699)">
</g>
<g
   id="g1065"
   transform="translate(0,329.69699)">
</g>
<g
   id="g1067"
   transform="translate(0,329.69699)">
</g>
<g
   id="g1069"
   transform="translate(0,329.69699)">
</g>
<g
   id="g1071"
   transform="translate(0,329.69699)">
</g>
<g
   id="g1073"
   transform="translate(0,329.69699)">
</g>
<g
   id="g1075"
   transform="translate(0,329.69699)">
</g>
<g
   id="g1077"
   transform="translate(0,329.69699)">
</g>
<g
   id="g1079"
   transform="translate(0,329.69699)">
</g>
<g
   id="g1081"
   transform="translate(0,329.69699)">
</g>
<g
   id="g1083"
   transform="translate(0,329.69699)">
</g>
<g
   id="g1085"
   transform="translate(0,329.69699)">
</g>
<g
   id="g1087"
   transform="translate(0,329.69699)">
</g>
<g
   id="g1089"
   transform="translate(0,329.69699)">
</g>
<g
   id="g1091"
   transform="translate(0,329.69699)">
</g>
<style
   id="style1100">
    .st0{fill:none}
  </style><g
   id="g1119"
   transform="matrix(7.1192893,0,0,7.1192893,69.728073,118.50762)"><path
     id="path1102"
     d="M 24.7,7.2 C 18.8,7.2 13.3,9.5 9.2,13.6 5,17.7 2.7,23.3 2.7,29.1 2.7,35 5,40.5 9.1,44.7 c 4.2,4.1 9.7,6.4 15.5,6.4 5.9,0 11.4,-2.3 15.5,-6.4 4.2,-4.1 6.4,-9.7 6.4,-15.5 0,-5.9 -2.3,-11.4 -6.4,-15.5 -4,-4.3 -9.5,-6.5 -15.4,-6.5 m 0,41.8 C 13.7,49 4.8,40.1 4.8,29.1 c 0,-11 8.9,-19.9 19.9,-19.9 11,0 19.9,8.9 19.9,19.9 0,11 -8.9,19.9 -19.9,19.9"
     inkscape:connector-curvature="0" /><path
     id="path1104"
     d="M 18.1,16.1 V 13 h -1.9 v 3.6 c -1.3,0.4 -2.1,0.8 -1.9,1.1 0.4,-0.1 1.1,-0.2 1.9,-0.1 V 36 c -2,3.8 0.9,9.7 0.9,9.7 0,0 -2.1,-6.3 2.6,-9.3 C 24,33.7 39,34.9 38.9,26.5 38.8,14.6 25,14.6 18.1,16.1 m 6.1,11.6 c -0.7,3.2 -4.1,4.8 -6.2,6.2 V 17.8 c 3.5,0.8 7.6,3.5 6.2,9.9"
     inkscape:connector-curvature="0" /><path
     id="path1106"
     d="M 0,0 H 52.2 V 55.2 H 0 Z"
     class="st0"
     inkscape:connector-curvature="0"
     style="fill:none" /></g><path
   id="path1121"
   d="m 607.93767,206.8881 c -43.90349,-75.33883 -167.35763,-53.34525 -167.35763,41.0584 0,65.0045 77.69578,131.47337 167.35763,220.46579 C 697.61347,379.41987 775.2953,312.951 775.2953,247.9465 c 0,-94.72442 -123.77491,-115.83937 -167.35763,-41.0584 z"
   inkscape:connector-curvature="0"
   style="stroke-width:13.94646931" /></svg>