<?xml version="1.0" encoding="UTF-8" standalone="no"?>
<!-- Generator: Adobe Illustrator 19.0.0, SVG Export Plug-In . SVG Version: 6.00 Build 0)  -->

<svg
   xmlns:dc="http://purl.org/dc/elements/1.1/"
   xmlns:cc="http://creativecommons.org/ns#"
   xmlns:rdf="http://www.w3.org/1999/02/22-rdf-syntax-ns#"
   xmlns:svg="http://www.w3.org/2000/svg"
   xmlns="http://www.w3.org/2000/svg"
   xmlns:sodipodi="http://sodipodi.sourceforge.net/DTD/sodipodi-0.dtd"
   xmlns:inkscape="http://www.inkscape.org/namespaces/inkscape"
   version="1.1"
   id="Layer_1"
   x="0px"
   y="0px"
   viewBox="0 0 300.303 300.303"
   style="enable-background:new 0 0 300.303 300.303;"
   xml:space="preserve"
   sodipodi:docname="grill-yellow.svg"
   inkscape:version="0.92.3 (2405546, 2018-03-11)"><metadata
   id="metadata937"><rdf:RDF><cc:Work
       rdf:about=""><dc:format>image/svg+xml</dc:format><dc:type
         rdf:resource="http://purl.org/dc/dcmitype/StillImage" /><dc:title /></cc:Work></rdf:RDF></metadata><defs
   id="defs935" /><sodipodi:namedview
   pagecolor="#ffffff"
   bordercolor="#666666"
   borderopacity="1"
   objecttolerance="10"
   gridtolerance="10"
   guidetolerance="10"
   inkscape:pageopacity="0"
   inkscape:pageshadow="2"
   inkscape:window-width="1214"
   inkscape:window-height="813"
   id="namedview933"
   showgrid="false"
   inkscape:zoom="0.52248956"
   inkscape:cx="-196.2669"
   inkscape:cy="150.1515"
   inkscape:window-x="0"
   inkscape:window-y="0"
   inkscape:window-maximized="0"
   inkscape:current-layer="Layer_1" />
<g
   id="g900"
   style="fill:#ffcd00;fill-opacity:1">
	<g
   id="g898"
   style="fill:#ffcd00;fill-opacity:1">
		<path
   d="M 228.751,200.547 218.142,147.502 C 266.859,122.654 300.301,71.986 300.301,13.65 300.301,6.112 294.189,0 286.651,0 h -273 C 6.113,0 0.001,6.112 0.001,13.65 0.002,71.985 33.443,122.653 82.161,147.5 l -12.714,63.567 c -0.005,0.024 -0.009,0.048 -0.014,0.071 l -14.567,72.835 c -1.478,7.392 3.316,14.583 10.709,16.062 0.904,0.18 1.804,0.268 2.691,0.268 6.374,0 12.074,-4.487 13.371,-10.976 L 94.002,227.5 h 84.392 c -3.503,6.831 -5.492,14.56 -5.492,22.75 0,27.598 22.452,50.05 50.05,50.05 27.598,0 50.05,-22.452 50.05,-50.05 -0.001,-25.635 -19.377,-46.819 -44.251,-49.703 z M 99.462,200.2 l 8.489,-42.447 c 13.394,3.928 27.554,6.047 42.201,6.047 14.647,0 28.806,-2.118 42.199,-6.046 L 200.84,200.2 Z M 222.951,273 c -12.544,0 -22.75,-10.206 -22.75,-22.75 0,-12.544 10.206,-22.75 22.75,-22.75 12.544,0 22.75,10.206 22.75,22.75 0,12.544 -10.205,22.75 -22.75,22.75 z"
   id="path896"
   inkscape:connector-curvature="0"
   style="fill:#ffcd00;fill-opacity:1" />
	</g>
</g>
<g
   id="g902">
</g>
<g
   id="g904">
</g>
<g
   id="g906">
</g>
<g
   id="g908">
</g>
<g
   id="g910">
</g>
<g
   id="g912">
</g>
<g
   id="g914">
</g>
<g
   id="g916">
</g>
<g
   id="g918">
</g>
<g
   id="g920">
</g>
<g
   id="g922">
</g>
<g
   id="g924">
</g>
<g
   id="g926">
</g>
<g
   id="g928">
</g>
<g
   id="g930">
</g>
</svg>